<?xml version="1.0" encoding="utf-8"?>
<!-- Generator: Adobe Illustrator 25.4.1, SVG Export Plug-In . SVG Version: 6.00 Build 0)  -->
<svg version="1.1" id="Layer_1" xmlns="http://www.w3.org/2000/svg" xmlns:xlink="http://www.w3.org/1999/xlink" x="0px" y="0px"
	 viewBox="0 0 576 576" style="enable-background:new 0 0 576 576;" xml:space="preserve">
<g>
	<path d="M327.1,220c-90,0-168.5,54.8-212.3,101.6l-87.3-66.1c-12.1-9.2-30.2,0.6-27.1,14.7L24.5,380L0.4,489.8
		c-3.1,14.1,15,23.8,27.1,14.7l87.3-66C158.6,485.2,237.1,540,327.1,540C464.6,540,576,412,576,380S464.6,220,327.1,220z M414.5,404
		c-13.2,0-24-10.8-24-24c0-13.3,10.8-24,24-24c13.3,0,24,10.7,24,24C438.5,393.2,427.8,404,414.5,404z"/>
	<path d="M337.4,159.5c-13.7,34.4-27.4,109.7-25.2,177.8c5.7,0.1,11.4,0.2,17.1,0.6c-2.4-67.7,11.9-141.4,23.9-171.9
		c17.4,6.6,32.6,10.1,45.8,10.1c9.8,0,18.5-1.8,26.6-5.3c20.2-8.9,35.7-28.5,50.4-63.5c1.8-4.4-0.2-9.4-4.6-11.2
		c-34.2-14.3-59.7-16.8-80.2-7.7c-7.8,3.5-15,8.6-21.6,15.5c-0.1-9.4-1.9-17.9-5.3-25.7c-8.9-20.2-28.5-35.7-63.5-50.4
		c-4.4-1.9-9.4,0.2-11.2,4.6c-14.3,34.2-16.8,59.7-7.7,80.2C290,131.2,307.4,145.9,337.4,159.5z"/>
</g>
</svg>
