<svg id="SvgjsSvg1001" width="100%" height="100%" xmlns="http://www.w3.org/2000/svg" version="1.1" xmlns:xlink="http://www.w3.org/1999/xlink" xmlns:svgjs="http://svgjs.com/svgjs"><defs id="SvgjsDefs1002"/><filter id="water"><feTurbulence id="SvgjsFeTurbulence1221" baseFrequency="0.01 0.05" filterName="feTurbulence" numOctaves="1" result="turbulence" stitchTiles="noStitch"/><feDisplacementMap id="SvgjsFeDisplacementMap1222" filterName="feDisplacementMap" in="SourceGraphic" in2="turbulence" result="displacementMap" scale="200"><animate id="SvgjsAnimate1223" attributeName="scale" dur="3" values="200;100;50;100;200" attributeType="XML" repeatCount="indefinite"/></feDisplacementMap></filter><g id="SvgjsG1620" transform="matrix(1,0,0,1,767.5,441.5)"><polyline id="SvgjsPolyline1622" points="-684,-350 -656,-356 -614,-359 -126,-359 -61,-350 -62,-337 -72,-292 -77,-259 -79,-233 -80,-23 -90,-20 -110,-18 -182,-16 -241,-16 -325,-19 -687,-21 -689,-205 -687,-242 -687,-286 -678,-336 -679,-348" fill-opacity="1" fill="#4e4e4e"/><polyline id="SvgjsPolyline1642" points="-527,-298 -527,-227 -530,-106" fill="none" stroke-linejoin="round" stroke-linecap="round" stroke-opacity="1" stroke="#d0dfdf" stroke-width="12" filter="url(#rain)"/><polyline id="SvgjsPolyline1647" points="-482,-327 -480,-284 -475,-256 -474,-175 -470,-142" fill="none" stroke-linejoin="round" stroke-linecap="round" stroke-opacity="1" stroke="#d0dfdf" stroke-width="12" filter="url(#rain)"/><polyline id="SvgjsPolyline1652" points="-502,-339 -507,-297 -509,-263 -508,-124" fill="none" stroke-linejoin="round" stroke-linecap="round" stroke-opacity="1" stroke="#d0dfdf" stroke-width="12" filter="url(#rain)"/><polyline id="SvgjsPolyline1657" points="-454,-240 -459,-192 -460,-34" fill="none" stroke-linejoin="round" stroke-linecap="round" stroke-opacity="1" stroke="#d0dfdf" stroke-width="12" filter="url(#rain)"/><polyline id="SvgjsPolyline1662" points="-429,-96 -429,-177 -438,-273 -438,-298 -434,-326 -434,-348" fill="none" stroke-linejoin="round" stroke-linecap="round" stroke-opacity="1" stroke="#d0dfdf" stroke-width="12" filter="url(#rain)"/><polyline id="SvgjsPolyline1667" points="-404,-336 -402,-287 -409,-213 -409,-47" fill="none" stroke-linejoin="round" stroke-linecap="round" stroke-opacity="1" stroke="#d0dfdf" stroke-width="12" filter="url(#rain)"/><polyline id="SvgjsPolyline1672" points="-622,-351 -628,-321 -630,-291 -631,-228 -634,-188 -633,-131" fill="none" stroke-linejoin="round" stroke-linecap="round" stroke-opacity="1" stroke="#d0dfdf" stroke-width="12" filter="url(#rain)"/><polyline id="SvgjsPolyline1677" points="-604,-22 -602,-62 -601,-194 -597,-282 -594,-318 -591,-334" fill="none" stroke-linejoin="round" stroke-linecap="round" stroke-opacity="1" stroke="#d0dfdf" stroke-width="12" filter="url(#rain)"/><polyline id="SvgjsPolyline1682" points="-306,-334 -306,-295 -310,-252 -313,-192 -313,-152" fill="none" stroke-linejoin="round" stroke-linecap="round" stroke-opacity="1" stroke="#d0dfdf" stroke-width="12" filter="url(#rain)"/><polyline id="SvgjsPolyline1687" points="-340,-10 -337,-28 -338,-190" fill="none" stroke-linejoin="round" stroke-linecap="round" stroke-opacity="1" stroke="#d0dfdf" stroke-width="12" filter="url(#rain)"/><polyline id="SvgjsPolyline1697" points="-287,-36 -282,-66 -281,-169" fill="none" stroke-linejoin="round" stroke-linecap="round" stroke-opacity="1" stroke="#d0dfdf" stroke-width="12" filter="url(#rain)"/><polyline id="SvgjsPolyline1702" points="-274,-350 -274,-207" fill="none" stroke-linejoin="round" stroke-linecap="round" stroke-opacity="1" stroke="#d0dfdf" stroke-width="12" filter="url(#rain)"/><polyline id="SvgjsPolyline1707" points="-223,-340 -223,-327 -234,-252 -240,-191 -238,-84" fill="none" stroke-linejoin="round" stroke-linecap="round" stroke-opacity="1" stroke="#d0dfdf" stroke-width="12" filter="url(#rain)"/><polyline id="SvgjsPolyline1712" points="-208,-322 -209,-113" fill="none" stroke-linejoin="round" stroke-linecap="round" stroke-opacity="1" stroke="#d0dfdf" stroke-width="12" filter="url(#rain)"/><polyline id="SvgjsPolyline1717" points="-175,-23 -172,-45 -172,-70 -179,-183 -178,-245" fill="none" stroke-linejoin="round" stroke-linecap="round" stroke-opacity="1" stroke="#d0dfdf" stroke-width="12" filter="url(#rain)"/><polyline id="SvgjsPolyline1722" points="-127,-352 -134,-324 -138,-296 -137,-173 -130,-100" fill="none" stroke-linejoin="round" stroke-linecap="round" stroke-opacity="1" stroke="#d0dfdf" stroke-width="12" filter="url(#rain)"/><polyline id="SvgjsPolyline1727" points="-116,-28 -117,-187 -114,-243" fill="none" stroke-linejoin="round" stroke-linecap="round" stroke-opacity="1" stroke="#d0dfdf" stroke-width="12" filter="url(#rain)"/><polyline id="SvgjsPolyline1773" points="-256,-224 -260,-212 -262,-192 -253,-172 -241,-154 -239,-152 -231,-154 -218,-164 -215,-170 -213,-171" fill-opacity="0.8" fill="#d6c6c6"/><polyline id="SvgjsPolyline1775" points="-212,-171 -198,-166" fill-opacity="0.8" fill="#d6c6c6"/><polyline id="SvgjsPolyline1779" points="-224,-164 -210,-152 -208,-148 -209,-136 -208,-139" fill-opacity="0.8" fill="#d6c6c6"/><polyline id="SvgjsPolyline1781" points="-205,-142 -204,-137 -209,-128 -199,-136" fill-opacity="0.8" fill="#d6c6c6"/><polyline id="SvgjsPolyline1783" points="-181,-144 -161,-140 -158,-136 -157,-100 -155,-88 -147,-62 -147,-52 -151,-45 -152,-55" fill-opacity="0.8" fill="#d6c6c6"/><polyline id="SvgjsPolyline1785" points="-163,-147 -136,-91 -129,-53 -129,-40 -132,-37 -154,-36 -179,-32 -212,-32 -216,-40 -216,-45 -213,-50 -205,-57 -198,-70 -198,-77 -207,-91 -209,-110" fill-opacity="0.8" fill="#d6c6c6"/><polyline id="SvgjsPolyline1787" points="-195,-31 -194,-17 -185,-19" fill-opacity="0.8" fill="#d6c6c6"/><polyline id="SvgjsPolyline1789" points="-139,-34 -153,-15 -155,-10 -158,-10" fill-opacity="0.8" fill="#d6c6c6"/><polyline id="SvgjsPolyline1791" points="-221,-16 -230,-25 -258,-45 -267,-54 -273,-65 -271,-67 -267,-64" fill-opacity="0.8" fill="#d6c6c6"/><polyline id="SvgjsPolyline1793" points="-251,-11 -252,-18 -260,-28 -282,-49 -283,-52" fill-opacity="0.8" fill="#d6c6c6"/><polyline id="SvgjsPolyline1801" points="-350,-99 -301,-99 -293,-86 -293,-66 -295,-60 -304,-51 -315,-50 -329,-50 -343,-56 -346,-62 -348,-72 -348,-88 -344,-98" fill-opacity="0.8" fill="#e23737"/><polyline id="SvgjsPolyline1805" points="-296,-88 -281,-83 -277,-77 -277,-63 -283,-55 -287,-54 -289,-54 -286,-55 -294,-58 -293,-60 -285,-63 -283,-67 -284,-78 -289,-79" fill-opacity="0.8" fill="#e23737"/><polyline id="SvgjsPolyline1815" points="-269,-59 -270,-66 -277,-74 -309,-97 -311,-93 -311,-87 -295,-77 -295,-72 -298,-69 -309,-66 -323,-65 -328,-69 -338,-73 -343,-78 -344,-77 -343,-67 -326,-56 -321,-44 -312,-43 -304,-46" fill-opacity="0.8" fill="#d6c6c6"/><polyline id="SvgjsPolyline1911" points="-322,-150 -329,-148 -334,-140 -334,-132 -315,-123 -312,-114 -315,-109 -317,-109 -320,-106 -319,-104" fill="none" stroke-linejoin="round" stroke-linecap="round" stroke-opacity="0.4" stroke="#fffefe" stroke-width="2" filter="url(#squiggly-animated)"/><polyline id="SvgjsPolyline1917" points="-324,-102 -329,-102 -330,-104 -330,-112 -328,-113 -327,-117" fill="none" stroke-linejoin="round" stroke-linecap="round" stroke-opacity="0.4" stroke="#fffefe" stroke-width="2" filter="url(#squiggly-animated)"/><polyline id="SvgjsPolyline1919" points="-640,-331 -586,-332 -484,-328 -486,-309 -486,-273 -483,-199 -533,-199 -555,-197 -646,-195 -648,-234 -648,-314 -644,-332" fill-opacity="0.1" fill="#fffefe"/><polyline id="SvgjsPolyline1923" points="-443,-327 -443,-191 -341,-205 -290,-207 -289,-209 -291,-236 -305,-293 -309,-338 -353,-329 -369,-328 -383,-325 -455,-325 -457,-322" fill-opacity="0.1" fill="#fffefe"/><polyline id="SvgjsPolyline1925" points="-640,-162 -620,-165 -471,-168 -470,-166 -475,-122 -474,-26 -594,-25 -653,-31 -642,-87 -639,-118 -639,-164" fill-opacity="0.1" fill="#fffefe"/><polyline id="SvgjsPolyline1927" points="-433,-171 -351,-173 -288,-172 -288,-122 -291,-98 -291,-80 -297,-28 -313,-27 -391,-34 -426,-34 -447,-36 -443,-53 -438,-121 -434,-134 -433,-143 -435,-165" fill-opacity="0.1" fill="#fffefe"/><polyline id="SvgjsPolyline1953" points="-684,-44 -82,-45 -78,-23 -119,-23 -152,-17 -322,-18 -368,-21 -415,-21 -431,-19 -696,-18 -695,-27 -691,-36 -678,-41" fill-opacity="0.7" fill="#fffefe" filter="url(#wood)"/><polyline id="SvgjsPolyline1966" points="-632,-36 -620,-38 -428,-39 -435,-32 -443,-28 -658,-27 -631,-35 -623,-36" fill-opacity="0.7" fill="#fffefe" filter="url(#wood)"/><polyline id="SvgjsPolyline1979" points="-399,-32 -373,-37 -324,-39 -203,-39 -207,-31 -247,-27 -409,-26 -408,-30 -384,-36" fill-opacity="0.7" fill="#fffefe" filter="url(#wood)"/><polyline id="SvgjsPolyline1992" points="-81,-39 -168,-37 -199,-31 -218,-21 -165,-21 -150,-22 -113,-28 -78,-29 -79,-38" fill-opacity="0.7" fill="#fffefe" filter="url(#wood)"/><polyline id="SvgjsPolyline2044" points="-244,-359 -245,-353 -239,-335 -220,-291 -180,-215 -172,-194 -155,-167 -144,-140 -143,-100 -145,-82 -153,-54 -154,-21 -146,-19 -132,-20 -96,-27 -74,-27 -73,-47 -76,-80 -76,-135 -82,-189 -82,-240 -76,-288 -66,-328 -61,-357 -117,-360 -158,-372 -173,-374 -201,-374 -222,-369 -242,-361 -249,-357 -250,-355" fill-opacity="0.5" fill="#3b110b"/><polyline id="SvgjsPolyline2066" points="-723,-282 -724,-282" fill-opacity="1" fill="#5a4343"/><polyline id="SvgjsPolyline2070" points="-628,-96 -608,-92 -592,-92 -576,-99 -576,-91 -587,-46 -587,-40 -604,-40 -616,-38 -619,-39 -624,-49 -629,-67 -630,-96" fill-opacity="1" fill="#332722"/><polyline id="SvgjsPolyline2076" points="-562,-116 -562,-76 -560,-56 -551,-32 -549,-31 -510,-33 -505,-30 -501,-36 -497,-47 -494,-61 -494,-99 -497,-117 -519,-115 -549,-115 -560,-117" fill-opacity="1" fill="#584b41"/><polyline id="SvgjsPolyline2078" points="-569,-59 -542,-59 -532,-62 -533,-50 -538,-32 -540,-30 -564,-30 -568,-38 -569,-53 -571,-57" fill-opacity="1" fill="#1b1611"/><polyline id="SvgjsPolyline2090" points="-525,-116 -527,-124 -532,-134 -539,-141 -547,-146 -558,-148 -557,-144 -549,-132 -535,-120 -529,-117 -525,-117 -522,-139 -519,-144 -507,-146 -502,-149 -501,-145 -508,-133 -518,-123 -520,-119 -524,-117" fill-opacity="1" fill="#91ca8b" filter="url(#squiggly-animated)"/><polyline id="SvgjsPolyline2096" points="-605,-96 -612,-117 -625,-137 -651,-169 -670,-181 -691,-184 -671,-182 -661,-178 -650,-171 -638,-159 -627,-140 -622,-125 -617,-100 -613,-97" fill-opacity="1" fill="#91ca8b" filter="url(#squiggly-animated)"/><polyline id="SvgjsPolyline2102" points="-660,-175 -659,-191 -656,-196 -647,-183 -646,-172 -650,-166" fill-opacity="1" fill="#91ca8b" filter="url(#squiggly-animated)"/><polyline id="SvgjsPolyline2108" points="-640,-154 -648,-154 -654,-142 -653,-140 -642,-140 -637,-147" fill-opacity="1" fill="#91ca8b" filter="url(#squiggly-animated)"/><polyline id="SvgjsPolyline2114" points="-606,-109 -606,-123 -593,-134 -587,-135 -586,-132 -590,-117 -597,-112 -605,-112" fill-opacity="1" fill="#91ca8b" filter="url(#squiggly-animated)"/><polyline id="SvgjsPolyline2120" points="-551,-55 -551,-60 -543,-75 -533,-80 -529,-80 -529,-73 -538,-61" fill-opacity="1" fill="#91ca8b" filter="url(#squiggly-animated)"/><polyline id="SvgjsPolyline2130" points="-655,-75 -654,-122 -656,-136 -656,-168 -653,-194" fill-opacity="1" fill="#ffffff" filter="url(#rain)"/><polyline id="SvgjsPolyline2135" points="-634,-267 -634,-207 -632,-187 -632,-130 -634,-108 -634,-80 -631,-55 -622,-51 -615,-50" fill-opacity="1" fill="#ffffff" filter="url(#rain)"/><polyline id="SvgjsPolyline2140" points="-646,-62 -632,-65 -613,-66 -613,-42" fill-opacity="1" fill="#ffffff" filter="url(#rain)"/><polyline id="SvgjsPolyline2145" points="-578,-35 -580,-34 -581,-42 -584,-49 -589,-46 -589,-44 -579,-42 -612,-32 -568,-32 -582,-30 -603,-23 -601,-25" fill-opacity="1" fill="#ffffff" filter="url(#rain)"/><polyline id="SvgjsPolyline2150" points="-640,-32 -668,-33 -648,-40 -638,-41 -683,-45 -645,-46 -635,-48 -665,-51 -651,-52" fill-opacity="1" fill="#ffffff" filter="url(#rain)"/><polyline id="SvgjsPolyline2155" points="-499,-46 -549,-46 -530,-46 -484,-54 -511,-51 -517,-49 -479,-55 -498,-50 -513,-44 -463,-44 -508,-41 -523,-38 -494,-39" fill-opacity="1" fill="#ffffff" filter="url(#rain)"/><polyline id="SvgjsPolyline2160" points="-387,-42 -419,-40 -435,-35 -340,-38 -451,-40 -479,-42 -395,-43 -401,-43 -418,-39 -354,-40 -387,-38 -414,-30 -415,-39 -419,-51 -427,-62 -412,-53 -379,-44 -376,-40 -370,-40" fill-opacity="1" fill="#ffffff" filter="url(#rain)"/><polyline id="SvgjsPolyline2165" points="-215,-23 -231,-24 -233,-22 -228,-19 -188,-17 -180,-20 -134,-30 -130,-31 -127,-34 -127,-48 -131,-38 -141,-24 -148,-19" fill-opacity="1" fill="#ffffff" filter="url(#rain)"/><polyline id="SvgjsPolyline2184" points="-549,-112 -549,-117 -552,-123 -563,-132 -563,-126 -559,-122 -545,-113 -541,-111 -539,-112" fill-opacity="0.6" fill="#ffffff" filter="url(#moss)"/><polyline id="SvgjsPolyline2205" points="-600,-88 -599,-97 -603,-99 -614,-93 -617,-89 -619,-81 -621,-59 -628,-51 -637,-46 -645,-34 -661,-34 -676,-42 -682,-43 -698,-41 -694,-37 -682,-31 -666,-27 -651,-28 -634,-42 -624,-68 -614,-71 -610,-79 -606,-81 -597,-93 -593,-91" fill-opacity="0.6" fill="#ffffff" filter="url(#moss)"/><polyline id="SvgjsPolyline2212" points="-501,-38 -493,-41 -480,-43 -465,-42 -454,-39 -444,-27 -439,-25 -438,-26 -438,-34 -440,-35 -462,-30 -477,-31 -480,-34 -483,-46 -492,-51 -503,-51 -508,-44" fill-opacity="0.6" fill="#ffffff" filter="url(#moss)"/><polyline id="SvgjsPolyline2219" points="-546,-52 -546,-58 -558,-58 -568,-52 -575,-41 -579,-38 -601,-37 -609,-28 -612,-28 -582,-33 -573,-33 -572,-39 -574,-58 -562,-59" fill-opacity="0.6" fill="#ffffff" filter="url(#moss)"/><polyline id="SvgjsPolyline2226" points="-650,-41 -631,-47 -611,-47 -589,-29 -574,-19 -562,-19 -592,-20 -600,-24 -604,-36 -616,-43 -634,-47 -643,-47 -648,-44" fill-opacity="0.6" fill="#ffffff" filter="url(#moss)"/><polyline id="SvgjsPolyline2247" points="-689,-59 -666,-67 -622,-74 -576,-73 -497,-61 -475,-56 -436,-51 -324,-24 -262,-14 -232,-11 -102,-11 -85,-12 -81,-14 -76,-21 -76,-25 -80,-29 -120,-42 -152,-49 -178,-50 -203,-50 -258,-41 -318,-34 -380,-29 -471,-27 -641,-28 -662,-32 -671,-42 -672,-48 -675,-53 -675,-60" fill-opacity="0.1" fill="#ffffff" filter="url(#moss)"/><polyline id="SvgjsPolyline2254" points="-717,-251 -712,-238 -699,-214" fill-opacity="0.1" fill="#ffffff" filter="url(#moss)"/><polyline id="SvgjsPolyline2267" points="-507,76 -495,83 -416,113 -257,180" fill-opacity="0.1" fill="#ffffff" filter="url(#squiggly-animated)"/></g><filter id="wood"><feTurbulence id="SvgjsFeTurbulence1981" filterName="feTurbulence" seed="26" type="fractalNoise" numOctaves="3" baseFrequency="0.1 0.005"/><feColorMatrix id="SvgjsFeColorMatrix1982" filterName="feColorMatrix" values="0 0 0 1 0&#13; 0 0 0 1 0&#13; 0 0 0 1 0&#13; 0 0 0 0 1"/><feComponentTransfer id="SvgjsFeComponentTransfer1983" filterName="feComponentTransfer"><feFuncR id="SvgjsFeFuncR1984" filterName="feFuncR" type="linear" slope="2" intercept="-0.5"/><feFuncG id="SvgjsFeFuncG1985" filterName="feFuncG" type="linear" slope="2" intercept="-0.5"/><feFuncB id="SvgjsFeFuncB1986" filterName="feFuncB" type="linear" slope="2" intercept="-0.5"/></feComponentTransfer><feComponentTransfer id="SvgjsFeComponentTransfer1987" filterName="feComponentTransfer" color-interpolation-filters="sRGB"><feFuncR id="SvgjsFeFuncR1988" filterName="feFuncR" type="table" tableValues="0.9230794869217218 0.9584933411841299 0.9794406666475184 "/><feFuncG id="SvgjsFeFuncG1989" filterName="feFuncG" type="table" tableValues="0.7858143525965073 0.8538485059551164 0.9029933555453431 "/><feFuncB id="SvgjsFeFuncB1990" filterName="feFuncB" type="table" tableValues="0.574688720703125 0.6753490971583946 0.7619049072265625 "/></feComponentTransfer><feComposite id="SvgjsFeComposite1991" filterName="feComposite" in2="SourceGraphic" operator="in"/></filter><filter id="paper"><feTurbulence id="SvgjsFeTurbulence1994" baseFrequency="0.04" filterName="feTurbulence" in="SourceGraphic" numOctaves="5" result="noise" seed="1" type="fractalNoise"/><feDiffuseLighting id="SvgjsFeDiffuseLighting1995" filterName="feDiffuseLighting" in="noise" lighting-color="white" result="paper" surfaceScale="2"><feDistantLight id="SvgjsFeDistantLight1996" azimuth="45" elevation="60" filterName="feDistantLight"/></feDiffuseLighting></filter><filter id="watercolour"><feTurbulence id="SvgjsFeTurbulence2015" baseFrequency=".0025" filterName="feTurbulence" numOctaves="5" result="cloudbase" seed="24" type="fractalNoise"/><feColorMatrix id="SvgjsFeColorMatrix2016" filterName="feColorMatrix" in="cloudbase" result="cloud" type="hueRotate" values="0"/><feColorMatrix id="SvgjsFeColorMatrix2017" filterName="feColorMatrix" in="cloud" result="wispy" type="matrix" values="4 0 0 0 -1 4 0 0 0 -1 4 0 0 0 -1 1 0 0 0 0"/><feFlood id="SvgjsFeFlood2018" filterName="feFlood" flood-color="#160000" result="color"/><feBlend id="SvgjsFeBlend2019" filterName="feBlend" in="wispy" in2="color" mode="screen" result="fill"/><feGaussianBlur id="SvgjsFeGaussianBlur2020" filterName="feGaussianBlur" stdDeviation="4"/><feComposite id="SvgjsFeComposite2021" filterName="feComposite" in2="SourceGraphic" operator="in"/></filter><filter id="rain"><feTurbulence id="SvgjsFeTurbulence2167" baseFrequency="0.1 0.005" filterName="feTurbulence" seed="6" numOctaves="1" result="turbulence" stitchTiles="stitch"><animate id="SvgjsAnimate2168" attributeName="seed" dur="1" values="6;2;4;1" attributeType="XML" repeatCount="indefinite"/></feTurbulence><feDisplacementMap id="SvgjsFeDisplacementMap2169" filterName="feDisplacementMap" in="SourceGraphic" in2="turbulence" result="displacementMap" scale="100"/></filter><filter id="moss"><feTurbulence id="SvgjsFeTurbulence2256" baseFrequency=".02" filterName="feTurbulence" numOctaves="4" type="fractalNoise"/><feMorphology id="SvgjsFeMorphology2257" filterName="feMorphology" operator="dilate" radius="1"/><feConvolveMatrix id="SvgjsFeConvolveMatrix2258" filterName="feConvolveMatrix" kernelMatrix="1 1 1 1 2 1 1 -9 1" preserveAlpha="true"/><feColorMatrix id="SvgjsFeColorMatrix2259" filterName="feColorMatrix" values=".4 .8 .6 0 0 1 1 1 0 0 .1 .2 .3 0 0 0 0 0 0 1"/><feComposite id="SvgjsFeComposite2260" filterName="feComposite" in2="SourceGraphic" operator="in"/></filter><filter id="squiggly-animated"><feTurbulence id="SvgjsFeTurbulence2293" baseFrequency="0.02" filterName="feTurbulence" numOctaves="3" result="noise" seed="0"><animate id="SvgjsAnimate2294" attributeName="seed" dur="0.2" values="0;1;2;4" attributeType="XML" repeatCount="indefinite"/></feTurbulence><feDisplacementMap id="SvgjsFeDisplacementMap2295" filterName="feDisplacementMap" in="SourceGraphic" in2="noise" scale="6"><animate id="SvgjsAnimate2296" attributeName="scale" dur="0.25" values="6;9;12;15" attributeType="XML" repeatCount="indefinite"/></feDisplacementMap></filter></svg>